<svg width="115" height="115" viewBox="0 0 115 115" fill="none" xmlns="http://www.w3.org/2000/svg">
<rect opacity="0.4" x="1.5" y="1.5" width="112" height="112" rx="56" stroke="#D2AB66" stroke-width="2" stroke-linecap="round" stroke-dasharray="8 10"/>
<path d="M41.4795 57.4639H45.4231V60.4657H41.4795V57.4639Z" fill="#D2AB66"/>
<path d="M76.277 49.5117H37.2743C35.8445 49.5117 34.6855 50.7069 34.6855 52.1813V74.8797C34.6855 76.3541 35.8445 77.5493 37.2743 77.5493H76.277C77.7068 77.5493 78.8657 76.3541 78.8657 74.8797V52.1813C78.8657 50.7069 77.7068 49.5117 76.277 49.5117ZM45.1259 71.7565H38.7186V69.0869H45.1259V71.7565ZM48.0118 60.91C48.0118 62.1367 47.0441 63.1347 45.8546 63.1347H41.048C39.8585 63.1347 38.8908 62.1367 38.8908 60.91V57.0183C38.8908 55.7917 39.8585 54.7937 41.048 54.7937H45.8545C47.044 54.7937 48.0117 55.7917 48.0117 57.0183V60.91H48.0118ZM55.0282 71.7565H48.6208V69.0869H55.0282V71.7565ZM64.9305 71.7565H58.5231V69.0869H64.9305V71.7565ZM74.8327 71.7565H68.4254V69.0869H74.8327V71.7565Z" fill="#D2AB66"/>
<path d="M69.4364 38.4048L63.9063 32.7018C62.8953 31.6593 61.2563 31.6593 60.2453 32.7018L46.5332 46.8424H61.722L69.4364 38.4048Z" fill="#D2AB66"/>
<path d="M69.2778 46.842L73.3256 42.4147L71.2681 40.293L65.2803 46.842H69.2778Z" fill="#D2AB66"/>
<path d="M76.2771 46.8424C76.8331 46.8424 77.3686 46.9344 77.871 47.1024L75.1571 44.3037L72.8359 46.8425H76.2771V46.8424Z" fill="#D2AB66"/>
</svg>
