<svg width="115" height="115" viewBox="0 0 115 115" fill="none" xmlns="http://www.w3.org/2000/svg">
<rect opacity="0.4" x="1.5" y="1.5" width="112.302" height="112.302" rx="56.1508" stroke="#D2AB66" stroke-width="2" stroke-linecap="round" stroke-dasharray="8 10"/>
<path d="M34.2839 63.2677H51.7739C52.1122 63.2691 52.4222 63.0786 52.5737 62.776C53.2785 61.3645 55.2606 57.4021 55.2606 57.4021C55.4009 57.1244 55.3871 56.7938 55.224 56.5288C55.0609 56.2638 54.772 56.1024 54.4608 56.1025H36.9707C36.6315 56.1027 36.3216 56.2944 36.17 56.5979L33.4831 61.9717C33.3444 62.2493 33.3593 62.5789 33.5224 62.8429C33.6854 63.1068 33.9735 63.2676 34.2839 63.2677Z" fill="#D2AB66"/>
<path d="M37.655 81.1805H56.4633V59.001L53.9296 64.0738C53.6267 64.6806 53.0054 65.0625 52.3273 65.059H36.7593V80.2849C36.7593 80.7796 37.1602 81.1805 37.655 81.1805Z" fill="#D2AB66"/>
<path d="M77.9582 80.2849V65.059H62.3902C61.7109 65.0617 61.0891 64.6774 60.7879 64.0684L58.2542 59.001V81.1805H77.0625C77.5572 81.1804 77.9582 80.7795 77.9582 80.2849Z" fill="#D2AB66"/>
<path d="M77.7472 56.1025H60.2572C59.9469 56.1027 59.6588 56.2635 59.4958 56.5275C59.3327 56.7914 59.3178 57.121 59.4565 57.3986L62.1434 62.7725C62.295 63.0758 62.605 63.2676 62.9441 63.2678H80.4342C80.7444 63.2676 81.0326 63.1069 81.1956 62.8429C81.3587 62.5789 81.3736 62.2493 81.2349 61.9717L78.5479 56.5979C78.3963 56.2944 78.0863 56.1027 77.7472 56.1025Z" fill="#D2AB66"/>
<path d="M50.1236 49.676C49.9947 50.2757 50.2215 50.8963 50.7068 51.2715C51.1921 51.6466 51.8498 51.71 52.3976 51.4342L56.6358 49.1163C57.0864 48.8682 57.6326 48.8682 58.0831 49.1163L62.3212 51.4324C62.8692 51.7081 63.5268 51.6448 64.0121 51.2696C64.4973 50.8944 64.7242 50.2739 64.5952 49.6742L63.7973 44.8377C63.7059 44.2988 63.8769 43.7486 64.2576 43.3563L67.6216 39.9466C68.0588 39.5063 68.2183 38.8612 68.0371 38.2677C67.8559 37.6743 67.3631 37.2285 66.7546 37.1075L62.0651 36.3982C61.546 36.3151 61.1022 35.9793 60.881 35.5025L58.7664 31.0449C58.52 30.4881 57.9683 30.1289 57.3594 30.1289C56.7504 30.1289 56.1988 30.488 55.9524 31.0449L53.8377 35.5025C53.6166 35.9793 53.1728 36.315 52.6537 36.3982L47.9642 37.1067C47.3556 37.2277 46.8628 37.6735 46.6816 38.2669C46.5004 38.8604 46.6601 39.5054 47.0972 39.9458L50.463 43.3563C50.8438 43.7486 51.0147 44.2988 50.9233 44.8377L50.1236 49.676Z" fill="#D2AB66"/>
<path d="M36.8927 47.4899C37.0831 47.6857 37.1685 47.9605 37.1229 48.2298L36.7235 50.6479C36.6595 50.9477 36.7731 51.2577 37.0158 51.4451C37.2584 51.6325 37.587 51.6641 37.8609 51.5266L39.9836 50.3694C40.2089 50.2457 40.4818 50.2457 40.7073 50.3694L42.8263 51.5275C43.1003 51.6652 43.4289 51.6335 43.6715 51.4461C43.9141 51.2587 44.0277 50.9488 43.9638 50.6489L43.5644 48.2308C43.5187 47.9616 43.6042 47.6867 43.7946 47.4909L45.4766 45.7893C45.6954 45.5692 45.7755 45.2466 45.6849 44.9497C45.5942 44.6528 45.3476 44.4299 45.0431 44.3696L42.6983 44.0114C42.4388 43.9699 42.2169 43.8021 42.1063 43.5636L41.0494 41.3369C40.9264 41.0579 40.6503 40.8779 40.3455 40.8779C40.0406 40.8779 39.7645 41.0579 39.6415 41.3369L38.5811 43.5626C38.4705 43.8011 38.2486 43.969 37.9891 44.0105L35.6443 44.3687C35.3398 44.429 35.0931 44.6519 35.0025 44.9488C34.9119 45.2456 34.9919 45.5683 35.2108 45.7883L36.8927 47.4899Z" fill="#D2AB66"/>
<path d="M73.6722 41.3346L72.6153 43.5629C72.5047 43.8014 72.2828 43.9693 72.0233 44.0108L69.6784 44.369C69.374 44.4293 69.1273 44.6522 69.0367 44.9491C68.9461 45.2459 69.0261 45.5686 69.245 45.7886L70.927 47.4903C71.1173 47.6861 71.2028 47.9609 71.1572 48.2302L70.7578 50.6483C70.6937 50.9481 70.8074 51.2581 71.0501 51.4455C71.2927 51.6329 71.6213 51.6645 71.8952 51.527L74.0178 50.3698C74.2432 50.2461 74.5161 50.2461 74.7416 50.3698L76.8606 51.5279C77.1346 51.6656 77.4632 51.6339 77.7058 51.4465C77.9484 51.2591 78.062 50.9492 77.9981 50.6493L77.5986 48.2312C77.553 47.962 77.6385 47.6871 77.8288 47.4913L79.5108 45.7897C79.7297 45.5696 79.8097 45.2469 79.7191 44.9501C79.6285 44.6532 79.3819 44.4303 79.0774 44.37L76.7326 44.0118C76.4731 43.9703 76.2512 43.8025 76.1406 43.5639L75.0837 41.3374C74.9622 41.0561 74.6852 40.8736 74.3788 40.873C74.0723 40.8723 73.7947 41.0537 73.6722 41.3346Z" fill="#D2AB66"/>
<path d="M51.0899 32.8155C51.4012 32.8172 51.691 32.6572 51.8553 32.3929C52.0197 32.1286 52.0351 31.7979 51.896 31.5195L51.0003 29.7283C50.7793 29.2856 50.2411 29.1059 49.7983 29.327C49.3557 29.5481 49.176 30.0862 49.3971 30.529L50.2928 32.3203C50.4438 32.6225 50.7521 32.814 51.0899 32.8155Z" fill="#D2AB66"/>
<path d="M48.1401 34.3442C48.4898 33.9944 48.4898 33.4275 48.1401 33.0778L47.2444 32.1821C46.893 31.8427 46.3344 31.8475 45.9889 32.193C45.6434 32.5385 45.6386 33.0971 45.9779 33.4486L46.8736 34.3443C47.2234 34.6938 47.7904 34.6938 48.1401 34.3442Z" fill="#D2AB66"/>
<path d="M63.6286 32.8157C63.9697 32.8175 64.2822 32.6255 64.4347 32.3204L65.3304 30.5291C65.5514 30.0839 65.3698 29.5438 64.9246 29.3226C64.4794 29.1016 63.9394 29.2832 63.7182 29.7284L62.8225 31.5196C62.6834 31.798 62.6987 32.1287 62.8632 32.393C63.0275 32.6574 63.3173 32.8174 63.6286 32.8157Z" fill="#D2AB66"/>
<path d="M67.8444 34.3438L68.7401 33.4482C68.9729 33.2233 69.0663 32.8902 68.9843 32.5771C68.9023 32.264 68.6578 32.0194 68.3446 31.9374C68.0315 31.8554 67.6985 31.9488 67.4736 32.1816L66.5779 33.0773C66.345 33.3022 66.2517 33.6352 66.3337 33.9483C66.4156 34.2614 66.6602 34.5061 66.9734 34.588C67.2866 34.67 67.6196 34.5767 67.8444 34.3438Z" fill="#D2AB66"/>
</svg>
