<svg width="115" height="115" viewBox="0 0 115 115" fill="none" xmlns="http://www.w3.org/2000/svg">
<rect opacity="0.4" x="1.5" y="1.5" width="112.302" height="112.302" rx="56.1508" stroke="#D2AB66" stroke-width="2" stroke-linecap="round" stroke-dasharray="8 10"/>
<path d="M65.825 50.4697C56.5933 50.4697 49.0828 57.9803 49.0828 67.2119C49.0828 76.4436 56.5933 83.9542 65.825 83.9542C75.0566 83.9542 82.5672 76.4436 82.5672 67.2119C82.5672 57.9803 75.0566 50.4697 65.825 50.4697ZM65.825 65.6899C68.3428 65.6899 70.391 67.7382 70.391 70.256C70.391 72.2377 69.1148 73.9113 67.347 74.5417V77.8661H64.303V74.5417C62.5352 73.9113 61.2589 72.2377 61.2589 70.256H64.303C64.303 71.0957 64.9852 71.778 65.825 71.778C66.6647 71.778 67.347 71.0957 67.347 70.256C67.347 69.4162 66.6647 68.734 65.825 68.734C63.3072 68.734 61.2589 66.6857 61.2589 64.1679C61.2589 62.1862 62.5352 60.5126 64.303 59.8822V56.5578H67.347V59.8822C69.1148 60.5126 70.391 62.1862 70.391 64.1679H67.347C67.347 63.3282 66.6647 62.6459 65.825 62.6459C64.9852 62.6459 64.303 63.3282 64.303 64.1679C64.303 65.0077 64.9852 65.6899 65.825 65.6899Z" fill="#D2AB66"/>
<path d="M47.5609 50.4691C56.9487 50.4691 64.3031 46.4575 64.3031 41.337C64.3031 36.2165 56.9487 32.002 47.5609 32.002C38.1731 32.002 30.6157 36.2165 30.6157 41.337C30.6157 46.4575 38.1731 50.4691 47.5609 50.4691Z" fill="#D2AB66"/>
<path d="M30.6155 66.2529V68.7329C30.6155 73.8534 38.1728 77.865 47.5606 77.865C48.0931 77.865 48.6091 77.816 49.1334 77.7903C47.9659 75.9547 47.0952 73.9178 46.5825 71.7403C39.7938 71.5529 33.8992 69.4668 30.6155 66.2529Z" fill="#D2AB66"/>
<path d="M46.1118 68.6557C46.0769 68.1769 46.0386 67.6987 46.0386 67.2112C46.0386 65.6245 46.2465 64.0889 46.601 62.6093C39.8039 62.4251 33.9021 60.3379 30.6155 57.1211V59.6011C30.6155 64.4499 37.4404 68.2605 46.1118 68.6557Z" fill="#D2AB66"/>
<path d="M47.5606 59.6014C47.5623 59.6014 47.5636 59.6011 47.5653 59.6011C48.5691 57.202 50.0283 55.0394 51.8404 53.2273C50.4659 53.4011 49.0453 53.5133 47.5606 53.5133C40.3344 53.5133 34.0579 51.3584 30.6155 47.9893V50.4692C30.6155 55.5897 38.1728 59.6014 47.5606 59.6014Z" fill="#D2AB66"/>
</svg>
